# xmcd CD database file generated by OrangeCD 5.0
#
# Track frame offsets:
#	150
#	9754
#	22486
#	32472
#	47317
#	59005
#	71726
#	81530
#	94631
#	105396
#
# Disc length: 1562 seconds
#
# Revision: 0
# Processed by: cddbd v1.4PL0 Copyright (c) Steve Scherf et al.
# Submitted via: OrangeCD 5.0
#
DISCID=7906180a
DTITLE=Various Artist - Christmas Treasures (Vol. 7)
DYEAR=1997
DGENRE=Country
TTITLE0=Frosty the snowman
TTITLE1=Jolly old St. Nick
TTITLE2=Santa Claus is coming to town
TTITLE3=Blue Christmas
TTITLE4=Silent Night
TTITLE5=Home for the Holidays
TTITLE6=Winter wonderland
TTITLE7=Silver bells
TTITLE8=Away in a manger
TTITLE9=Good King Wencelas
EXTD=
EXTT0=
EXTT1=
EXTT2=
EXTT3=
EXTT4=
EXTT5=
EXTT6=
EXTT7=
EXTT8=
EXTT9=
PLAYORDER=
